2.8Hzlow3min_grf.mot
version=1
nRows=22
nColumns 19
inDegrees=yes
endheader
time	1_ground_force_vx	1_ground_force_vy	1_ground_force_vz	1_ground_force_px	1_ground_force_py	1_ground_force_pz	1_ground_torque_x	1_ground_torque_y	1_ground_torque_z	2_ground_force_vx	2_ground_force_vy	2_ground_force_vz	2_ground_force_px	2_ground_force_py	2_ground_force_pz	2_ground_torque_x	2_ground_torque_y	2_ground_torque_z
            2.502500	           23.668658	          958.525409	          -49.235007	           -0.255597	            0.006275	           -0.418392	            0.014036	            0.568422	           -0.029197	           -1.481639	          923.312787	           58.716464	           -0.207237	            0.005772	           -0.707850	            0.002375	           -1.480324	           -0.094139
            2.503000	           23.761946	          954.738244	          -48.884619	           -0.255540	            0.006275	           -0.418393	            0.015394	            0.618516	           -0.031669	           -1.982757	          919.262889	           57.810594	           -0.207064	            0.005771	           -0.707581	            0.003265	           -1.513788	           -0.095199
            2.503500	           23.213138	          951.311941	          -48.622805	           -0.255404	            0.006275	           -0.418377	            0.016401	            0.672139	           -0.034354	           -2.529916	          915.027448	           57.232584	           -0.206904	            0.005771	           -0.707304	            0.004319	           -1.562059	           -0.097703
            2.504000	           23.261070	          947.343807	          -48.089652	           -0.255225	            0.006275	           -0.418338	            0.021134	            0.860702	           -0.043691	           -2.706325	          911.898707	           56.517572	           -0.206795	            0.005771	           -0.707344	            0.004714	           -1.588234	           -0.098435
            2.504500	           22.804664	          943.736045	          -47.553703	           -0.255083	            0.006275	           -0.418278	            0.024073	            0.996207	           -0.050198	           -3.164938	          909.135514	           56.320203	           -0.206665	            0.005773	           -0.707641	            0.005052	           -1.451267	           -0.089905
            2.505000	           22.211106	          939.947372	          -46.880621	           -0.255020	            0.006275	           -0.418287	            0.022566	            0.954957	           -0.047629	           -3.291859	          905.270547	           55.555615	           -0.206576	            0.005773	           -0.707435	            0.005369	           -1.476447	           -0.090608
            2.505500	           21.159752	          934.535598	          -46.075787	           -0.254986	            0.006276	           -0.418598	            0.016385	            0.723665	           -0.035679	           -3.325643	          901.589283	           55.026284	           -0.206427	            0.005772	           -0.707086	            0.005584	           -1.513866	           -0.092395
            2.506000	           20.749778	          930.205996	          -45.359620	           -0.254848	            0.006276	           -0.418602	            0.014134	            0.633604	           -0.030896	           -3.827946	          897.906372	           54.450225	           -0.206325	            0.005772	           -0.707026	            0.006215	           -1.457934	           -0.088411
            2.506500	           20.018150	          927.499541	          -44.819123	           -0.254760	            0.006275	           -0.418426	            0.014054	            0.651159	           -0.031466	           -3.956759	          894.593051	           53.922248	           -0.206182	            0.005773	           -0.707102	            0.006857	           -1.550261	           -0.093443
            2.507000	           20.111896	          922.450153	          -44.382434	           -0.254558	            0.006276	           -0.418522	            0.017768	            0.814965	           -0.039211	           -4.787717	          891.093615	           53.253130	           -0.206208	            0.005773	           -0.707152	            0.008262	           -1.537665	           -0.091893
            2.507500	           20.021959	          918.482582	          -43.986504	           -0.254421	            0.006276	           -0.418552	            0.020746	            0.951700	           -0.045577	           -4.816807	          886.122849	           52.813056	           -0.206015	            0.005773	           -0.706908	            0.008743	           -1.608371	           -0.095859
            2.508000	           19.657227	          913.072711	          -43.596084	           -0.254369	            0.006276	           -0.418615	            0.023364	            1.085253	           -0.051817	           -4.989811	          882.072796	           52.282471	           -0.205797	            0.005773	           -0.706794	            0.008337	           -1.473825	           -0.087357
            2.508500	           19.384732	          908.382862	          -42.927655	           -0.254145	            0.006277	           -0.418727	            0.021122	            0.989783	           -0.046774	           -5.300686	          877.285383	           51.796246	           -0.205593	            0.005774	           -0.706765	            0.008440	           -1.396866	           -0.082473
            2.509000	           18.516340	          904.593742	          -42.162179	           -0.253992	            0.006276	           -0.418489	            0.016397	            0.801035	           -0.037335	           -5.288887	          873.972067	           51.408994	           -0.205620	            0.005774	           -0.706821	            0.008637	           -1.427186	           -0.083950
            2.509500	           18.106384	          899.543274	          -41.494956	           -0.254068	            0.006277	           -0.418770	            0.015026	            0.746522	           -0.034436	           -5.086489	          869.739668	           50.736809	           -0.205421	            0.005774	           -0.706679	            0.008807	           -1.505957	           -0.087851
            2.510000	           17.512954	          895.033538	          -40.824966	           -0.253804	            0.006277	           -0.418704	            0.013974	            0.714168	           -0.032575	           -5.022586	          864.953898	           50.203496	           -0.205294	            0.005774	           -0.706627	            0.008824	           -1.519672	           -0.088205
            2.510500	           17.331315	          890.525257	          -40.476988	           -0.253717	            0.006277	           -0.418753	            0.017069	            0.877069	           -0.039865	           -5.380187	          860.165312	           49.998860	           -0.205277	            0.005773	           -0.706313	            0.009289	           -1.485073	           -0.086323
            2.511000	           17.379271	          884.574821	          -40.089902	           -0.253524	            0.006277	           -0.418876	            0.020179	            1.027089	           -0.046549	           -5.365003	          855.930730	           49.749107	           -0.205078	            0.005774	           -0.706451	            0.009292	           -1.482412	           -0.086162
            2.511500	           17.060608	          879.164565	          -39.607883	           -0.253429	            0.006278	           -0.419070	            0.019775	            1.019063	           -0.045911	           -5.768331	          850.775367	           49.073895	           -0.204919	            0.005775	           -0.706364	            0.009565	           -1.410705	           -0.081371
            2.512000	           16.649771	          875.196932	          -39.211157	           -0.253326	            0.006278	           -0.418894	            0.019032	            1.000422	           -0.044822	           -5.616003	          847.462726	           48.639655	           -0.204906	            0.005775	           -0.706398	            0.008851	           -1.335692	           -0.076661
            2.512500	           15.964900	          869.965918	          -38.498172	           -0.253270	            0.006278	           -0.419048	            0.016195	            0.882502	           -0.039053	           -5.551956	          842.675785	           48.434840	           -0.204753	            0.005775	           -0.706299	            0.008577	           -1.301770	           -0.074822
            2.513000	           15.325596	          865.636469	          -37.827295	           -0.253125	            0.006277	           -0.418818	            0.013512	            0.763220	           -0.033352	           -5.484728	          836.969128	           47.898241	           -0.204653	            0.005775	           -0.706126	            0.008816	           -1.345370	           -0.076993
